<svg xmlns="http://www.w3.org/2000/svg" width="24" height="24" viewBox="0 0 24 24">
  <metadata><?xpacket begin="﻿" id="W5M0MpCehiHzreSzNTczkc9d"?>
<x:xmpmeta xmlns:x="adobe:ns:meta/" x:xmptk="Adobe XMP Core 5.6-c140 79.160451, 2017/05/06-01:08:21        ">
   <rdf:RDF xmlns:rdf="http://www.w3.org/1999/02/22-rdf-syntax-ns#">
      <rdf:Description rdf:about=""/>
   </rdf:RDF>
</x:xmpmeta>
                                                                                                    
                                                                                                    
                                                                                                    
                                                                                                    
                                                                                                    
                                                                                                    
                                                                                                    
                                                                                                    
                                                                                                    
                                                                                                    
                                                                                                    
                                                                                                    
                                                                                                    
                                                                                                    
                                                                                                    
                                                                                                    
                                                                                                    
                                                                                                    
                                                                                                    
                                                                                                    
                           
<?xpacket end="w"?></metadata>
<defs>
    <style>
      .cls-1 {
        fill: #fff;
        fill-rule: evenodd;
      }
    </style>
  </defs>
  <path id="Instagram" class="cls-1" d="M1222.94,1491.16c3.2,0,3.58.01,4.84,0.07,3.25,0.15,4.77,1.69,4.91,4.92,0.06,1.27.07,1.65,0.07,4.85s-0.01,3.59-.07,4.85c-0.14,3.23-1.66,4.77-4.91,4.92-1.26.06-1.64,0.07-4.84,0.07s-3.59-.01-4.85-0.07c-3.26-.15-4.76-1.7-4.91-4.92-0.06-1.27-.07-1.64-0.07-4.85s0.01-3.58.07-4.85c0.15-3.23,1.66-4.77,4.91-4.92C1219.36,1491.17,1219.73,1491.16,1222.94,1491.16Zm0-2.16c-3.26,0-3.67.01-4.95,0.07-4.35.2-6.77,2.62-6.97,6.98-0.06,1.28-.07,1.69-0.07,4.95s0.01,3.67.07,4.95c0.2,4.36,2.61,6.78,6.97,6.98,1.28,0.06,1.69.07,4.95,0.07s3.66-.01,4.94-0.07c4.35-.2,6.77-2.62,6.97-6.98,0.06-1.28.07-1.69,0.07-4.95s-0.01-3.67-.07-4.95c-0.19-4.35-2.61-6.78-6.97-6.98C1226.6,1489.01,1226.19,1489,1222.94,1489Zm0,5.84a6.16,6.16,0,1,0,6.15,6.16A6.163,6.163,0,0,0,1222.94,1494.84Zm0,10.16a4,4,0,1,1,3.99-4A4,4,0,0,1,1222.94,1505Zm6.4-11.84a1.44,1.44,0,1,0,1.43,1.43A1.432,1.432,0,0,0,1229.34,1493.16Z" transform="translate(-1210.94 -1489)"/>
</svg>
