<svg xmlns="http://www.w3.org/2000/svg" width="23.97" height="24" viewBox="0 0 23.97 24">
  <metadata><?xpacket begin="﻿" id="W5M0MpCehiHzreSzNTczkc9d"?>
<x:xmpmeta xmlns:x="adobe:ns:meta/" x:xmptk="Adobe XMP Core 5.6-c140 79.160451, 2017/05/06-01:08:21        ">
   <rdf:RDF xmlns:rdf="http://www.w3.org/1999/02/22-rdf-syntax-ns#">
      <rdf:Description rdf:about=""/>
   </rdf:RDF>
</x:xmpmeta>
                                                                                                    
                                                                                                    
                                                                                                    
                                                                                                    
                                                                                                    
                                                                                                    
                                                                                                    
                                                                                                    
                                                                                                    
                                                                                                    
                                                                                                    
                                                                                                    
                                                                                                    
                                                                                                    
                                                                                                    
                                                                                                    
                                                                                                    
                                                                                                    
                                                                                                    
                                                                                                    
                           
<?xpacket end="w"?></metadata>
<defs>
    <style>
      .cls-1 {
        fill: #fff;
        fill-rule: evenodd;
      }
    </style>
  </defs>
  <path id="Linkedin" class="cls-1" d="M1416.81,1489h-13.99a5,5,0,0,0-4.99,5v14a5,5,0,0,0,4.99,5h13.99a5,5,0,0,0,5-5v-14A5,5,0,0,0,1416.81,1489Zm-10.99,19h-3v-11h3v11Zm-1.5-12.27a1.765,1.765,0,1,1,1.75-1.76A1.752,1.752,0,0,1,1404.32,1495.73Zm13.49,12.27h-3v-5.6c0-3.37-3.99-3.12-3.99,0v5.6h-3v-11h3v1.76c1.39-2.58,6.99-2.77,6.99,2.48V1508Z" transform="translate(-1397.84 -1489)"/>
</svg>
