<svg xmlns="http://www.w3.org/2000/svg" width="24" height="19.94" viewBox="0 0 24 19.94">
  <metadata><?xpacket begin="﻿" id="W5M0MpCehiHzreSzNTczkc9d"?>
<x:xmpmeta xmlns:x="adobe:ns:meta/" x:xmptk="Adobe XMP Core 5.6-c140 79.160451, 2017/05/06-01:08:21        ">
   <rdf:RDF xmlns:rdf="http://www.w3.org/1999/02/22-rdf-syntax-ns#">
      <rdf:Description rdf:about=""/>
   </rdf:RDF>
</x:xmpmeta>
                                                                                                    
                                                                                                    
                                                                                                    
                                                                                                    
                                                                                                    
                                                                                                    
                                                                                                    
                                                                                                    
                                                                                                    
                                                                                                    
                                                                                                    
                                                                                                    
                                                                                                    
                                                                                                    
                                                                                                    
                                                                                                    
                                                                                                    
                                                                                                    
                                                                                                    
                                                                                                    
                           
<?xpacket end="w"?></metadata>
<defs>
    <style>
      .cls-1 {
        fill: #fff;
        fill-rule: evenodd;
      }
    </style>
  </defs>
  <path id="Twitter" class="cls-1" d="M1328.86,1494.11a9.607,9.607,0,0,1-2.82.79,4.972,4.972,0,0,0,2.16-2.78,9.952,9.952,0,0,1-3.12,1.22,4.867,4.867,0,0,0-3.59-1.59,5.005,5.005,0,0,0-4.79,6.18,13.836,13.836,0,0,1-10.14-5.26,5.123,5.123,0,0,0,1.52,6.73,4.932,4.932,0,0,1-2.23-.63,5.022,5.022,0,0,0,3.95,5,4.734,4.734,0,0,1-2.22.08,4.92,4.92,0,0,0,4.59,3.5,9.745,9.745,0,0,1-7.28,2.09,13.654,13.654,0,0,0,7.54,2.26c9.13,0,14.29-7.9,13.98-14.98A9.984,9.984,0,0,0,1328.86,1494.11Z" transform="translate(-1304.88 -1491.75)"/>
</svg>
